<?xml version="1.0" standalone="no"?>
<!DOCTYPE svg PUBLIC "-//W3C//DTD SVG 20010904//EN"
 "http://www.w3.org/TR/2001/REC-SVG-20010904/DTD/svg10.dtd">
<svg version="1.0" xmlns="http://www.w3.org/2000/svg"
 width="152.000000pt" height="152.000000pt" viewBox="0 0 152.000000 152.000000"
 preserveAspectRatio="xMidYMid meet">
<metadata>
Created by potrace 1.14, written by Peter Selinger 2001-2017
</metadata>
<g transform="translate(0.000000,152.000000) scale(0.100000,-0.100000)"
fill="#000000" stroke="none">
<path d="M913 1073 c-61 -49 -156 -124 -213 -168 -115 -91 -209 -164 -260
-205 -19 -15 -69 -54 -110 -87 -41 -33 -121 -96 -177 -141 -57 -45 -112 -87
-123 -94 -11 -7 -20 -16 -20 -20 0 -3 64 -6 143 -6 l142 0 65 52 c70 56 242
192 380 300 47 37 92 72 100 79 92 75 142 109 149 101 15 -17 201 -332 201
-341 0 -5 -57 -8 -127 -8 -71 1 -137 -3 -148 -8 -20 -10 -172 -126 -209 -159
-17 -15 8 -16 398 -16 378 1 414 2 407 17 -5 9 -89 149 -186 311 -98 162 -185
309 -195 325 -65 112 -92 155 -99 155 -4 0 -57 -39 -118 -87z"/>
</g>
</svg>
